<svg id="Ebene_1" data-name="Ebene 1" xmlns="http://www.w3.org/2000/svg" viewBox="0 0 76.88 101"><defs><style>.cls-1{stroke:#000;stroke-miterlimit:10;}</style></defs><rect class="cls-1" x="8.37" y="17.87" width="26.34" height="3.63"/><rect class="cls-1" x="8.37" y="67.57" width="26.34" height="3.63"/><rect class="cls-1" x="8.37" y="30.29" width="44.42" height="3.63"/><rect class="cls-1" x="8.37" y="42.72" width="44.42" height="3.63"/><rect class="cls-1" x="8.37" y="55.14" width="44.42" height="3.63"/><path class="cls-1" d="M63.92.5H5A4.83,4.83,0,0,0,.5,5.57V95.45a4.81,4.81,0,0,0,4.54,5H53.29l1-1.09V96.12H4.14V4.89H64.82V84.3h2.92l.72-.8V5.57A4.83,4.83,0,0,0,63.92.5Z"/><path class="cls-1" d="M55.17,79.91A4.83,4.83,0,0,0,50.63,85V100.5h2.66l1-1.09V84.3H67.74l.72-.8V79.91Z"/><path class="cls-1" d="M47.35,66.36,46.89,66a2.61,2.61,0,0,1-.57-3.38L71.93,20.84a2,2,0,0,1,3-.63l.47.35A2.62,2.62,0,0,1,76,23.94L50.39,65.73A2,2,0,0,1,47.35,66.36Z"/><polygon class="cls-1" points="47.76 65.14 49.57 66.53 46.43 69.48 43.29 72.44 44.62 68.1 45.95 63.76 47.76 65.14"/><polygon class="cls-1" points="68.46 79.03 68.46 83.32 67.62 84.3 55.64 98 53.46 100.5 49.7 100.5 50.75 99.3 52.03 97.83 53.52 96.12 54.37 95.16 55.64 93.7 63.85 84.3 64.85 83.17 66.12 81.7 67.7 79.91 68.46 79.03"/></svg>