<svg id="Ebene_1" data-name="Ebene 1" xmlns="http://www.w3.org/2000/svg" viewBox="0 0 157.61 99.9"><defs><style>.cls-1{stroke:#000;stroke-miterlimit:10;}.cls-2{font-size:34.02px;font-family:MyriadPro-Bold, Myriad Pro;font-weight:700;}</style></defs><path d="M115.46,28l-2,2.62h0l-2.39,3L83.43,68.72a2.52,2.52,0,1,1-4-3.12l26.14-33.28h0l2.13-2.72,1.07-1.36,2-2.47,3.48-.79.75,1.86Z"/><path d="M131.29,73.39l-1.31.52a2.42,2.42,0,0,1-3.16-1.32L111,33.62l0-.06-.21-.53-.69-1.71-1.19-2.94-.06-.14-.07-.16-.69-1.7-7-17.23A2.45,2.45,0,0,1,102.42,6l1.31-.52a2.42,2.42,0,0,1,3.16,1.34L114.26,25l.75,1.86.45,1.11,0,0,17.13,42.26A2.43,2.43,0,0,1,131.29,73.39Z"/><path d="M82.22,69.42a3.13,3.13,0,0,1-4.08-1.72l-11-27.19-1.35-3.33L60.18,23.42a3.13,3.13,0,0,1,1.72-4.08,3.06,3.06,0,0,1,1.17-.24,3.1,3.1,0,0,1,2.9,2l5.52,13.62,2,4.93L83.94,65.34A3.14,3.14,0,0,1,82.22,69.42Z"/><rect x="54.54" y="34.08" width="6.26" height="42.1" rx="2.54" transform="translate(55.88 -24.63) rotate(45)"/><path d="M115.46,27.94l-2,2.63h0l-3.32.74-.14,0-4.3,1h0L73.49,39.61l-4.78,1.08a2.25,2.25,0,0,1-1.6-.18l-1.35-3.33a2.47,2.47,0,0,1,1.79-1.62l3.94-.88,36.58-8.3,2.71-.61,3.49-.8.74,1.86Z"/><rect x="106.08" y="-2.8" width="4.59" height="15.66" rx="1.86" transform="translate(62.36 -93.23) rotate(62.24)"/><path class="cls-1" d="M52.77,14.4a6,6,0,0,1,5.13-1.09c3.26.64,9.91,1.31,15.53-.91,2.76.28,3.69-.25,5.12,2.06,0,1.8-.45,2.31-3.27,3.26s-7.53,2.88-7.53,2.88l-6.59,1.82s-5.61.86-8.45-1.45C50.79,18.23,52.77,14.4,52.77,14.4Z"/><rect x="60.54" y="48.25" width="5.14" height="38.54" rx="1.02" transform="translate(128.19 1.88) rotate(87.82)"/><path class="cls-1" d="M129,43.13a28.16,28.16,0,0,0-6.78.83,27.68,27.68,0,0,0-5.86,2.19,28.1,28.1,0,1,0,12.64-3Zm.3,49.76a21.63,21.63,0,0,1-10.44-40.57,21,21,0,0,1,5.87-2.2,21.63,21.63,0,1,1,4.57,42.77Z"/><path class="cls-1" d="M73.75,69.69A26.8,26.8,0,0,0,73,64.58a28,28,0,0,0-7.29-13,27.34,27.34,0,0,0-4.9-4,27.78,27.78,0,0,0-9.32-3.85,26.16,26.16,0,0,1-3.61,6,21.14,21.14,0,0,1,8.31,2.47A21.68,21.68,0,0,1,66.61,64.82a20.44,20.44,0,0,1,.94,5.11c0,.44,0,.89,0,1.34A21.62,21.62,0,1,1,27.51,60c-.29,0-.58,0-.87,0a26.58,26.58,0,0,1-6.4-.77,28.13,28.13,0,1,0,53.56,12C73.8,70.74,73.79,70.22,73.75,69.69Z"/><path class="cls-1" d="M.5,32.08A25.39,25.39,0,1,0,25.89,6.7,25.42,25.42,0,0,0,.5,32.08Zm45.18,0A19.52,19.52,0,1,1,26.16,12.56,19.53,19.53,0,0,1,45.68,32.08Z"/><text class="cls-2" transform="translate(15.31 42.07)">€</text></svg>