<svg id="Ebene_1" data-name="Ebene 1" xmlns="http://www.w3.org/2000/svg" viewBox="0 0 102.27 102.27"><defs><style>.cls-1{stroke:#000;stroke-miterlimit:10;}</style></defs><path class="cls-1" d="M100.15,54.59l-4.48-2.18a3.76,3.76,0,0,1-1.94-3s0-.57-.12-1.94l0-.46c-.07-.52.67-1.45,1.67-2.06l4.22-2.67a3.08,3.08,0,0,0,1.25-3.17l-2.51-7.64a3,3,0,0,0-2.88-1.82l-5,.37a3.54,3.54,0,0,1-3-1.42c-.53-.85-1.61-3.85-1.06-4.87l2.32-4.42A3.1,3.1,0,0,0,88,15.9l-6-5.36a3.05,3.05,0,0,0-3.41-.13L74.5,13.22a3.56,3.56,0,0,1-3.34.3C70.27,13,67.85,11,67.8,9.81l-.21-5a3,3,0,0,0-2.11-2.66L57.6.53a3.05,3.05,0,0,0-3,1.59L52.41,6.61a3.75,3.75,0,0,1-3,1.93s-.58,0-1.94.12L47,8.71c-.5.06-1.43-.7-2-1.67L42.24,2.8a3.07,3.07,0,0,0-3.15-1.25L31.42,4.06a3.06,3.06,0,0,0-1.81,2.88l.36,5a3.57,3.57,0,0,1-1.4,3c-.87.54-3.86,1.61-4.89,1.08l-4.41-2.34a3.07,3.07,0,0,0-3.36.51l-5.38,6a3.09,3.09,0,0,0-.12,3.41l2.8,4.13a3.54,3.54,0,0,1,.32,3.34C13,32,11,34.42,9.81,34.47l-5,.21a3.09,3.09,0,0,0-2.67,2.11L.52,44.67a3.09,3.09,0,0,0,1.59,3l4.5,2.18a3.7,3.7,0,0,1,1.92,3s0,.58.13,1.94l0,.47c.07.52-.67,1.45-1.67,2.06L2.81,60A3.07,3.07,0,0,0,1.56,63.2l2.49,7.64a3.11,3.11,0,0,0,2.89,1.82l5-.36A3.56,3.56,0,0,1,15,73.7c.52.87,1.59,3.86,1.05,4.89L13.73,83a3,3,0,0,0,.51,3.36l6,5.38a3.09,3.09,0,0,0,3.41.12l4.14-2.81a3.55,3.55,0,0,1,3.34-.29c.87.47,3.32,2.53,3.36,3.7l.19,5a3.09,3.09,0,0,0,2.12,2.67l7.89,1.64a3.06,3.06,0,0,0,3-1.6l2.19-4.49a3.74,3.74,0,0,1,3-1.92s.58,0,1.94-.13l.47,0c.51-.06,1.44.7,2,1.68L60,99.48a3.09,3.09,0,0,0,3.17,1.24l7.67-2.5a3,3,0,0,0,1.79-2.89l-.34-5a3.47,3.47,0,0,1,1.4-3c.85-.54,3.85-1.61,4.87-1.07L83,88.55a3.09,3.09,0,0,0,3.36-.5l5.38-6a3.11,3.11,0,0,0,.12-3.41l-2.8-4.13a3.54,3.54,0,0,1-.32-3.34c.49-.88,2.56-3.33,3.71-3.36l5-.2a3.06,3.06,0,0,0,2.66-2.12l1.64-7.9A3,3,0,0,0,100.15,54.59Zm-49,32.81A36.27,36.27,0,1,1,87.4,51.14,36.27,36.27,0,0,1,51.13,87.4Z"/><path class="cls-1" d="M42.27,26.62A10.45,10.45,0,1,1,24.39,32L31.09,39l9-8.55-6.7-7A10.46,10.46,0,0,1,42.27,26.62Z"/><path class="cls-1" d="M60.06,75.71A10.45,10.45,0,1,1,77.89,70.2l-6.75-7-8.93,8.63,6.75,7A10.42,10.42,0,0,1,60.06,75.71Z"/><rect class="cls-1" x="47.31" y="33.71" width="8.04" height="35.28" rx="2.55" transform="translate(-21.25 49.47) rotate(-43.52)"/></svg>